<svg width="1200" height="700" viewBox="0 0 1200 700" fill="none" xmlns="http://www.w3.org/2000/svg">
  <defs>
	<radialGradient id="bgGlow" cx="0" cy="0" r="1" gradientUnits="userSpaceOnUse" gradientTransform="translate(650 270) rotate(90) scale(420 620)">
	  <stop offset="0" stop-color="#27E6FF" stop-opacity="0.22"/>
	  <stop offset="1" stop-color="#050607" stop-opacity="0"/>
	</radialGradient>
	<linearGradient id="panelStroke" x1="300" y1="120" x2="900" y2="560" gradientUnits="userSpaceOnUse">
	  <stop stop-color="#5BEFFF"/>
	  <stop offset="1" stop-color="#14BDD4"/>
	</linearGradient>
	<linearGradient id="cyanLine" x1="460" y1="250" x2="760" y2="430" gradientUnits="userSpaceOnUse">
	  <stop stop-color="#73F2FF"/>
	  <stop offset="1" stop-color="#27E6FF"/>
	</linearGradient>
	<filter id="soft" x="-20%" y="-20%" width="140%" height="140%" filterUnits="objectBoundingBox">
	  <feGaussianBlur stdDeviation="5"/>
	</filter>
  </defs>

  <rect width="1200" height="700" fill="#050607"/>
  <rect width="1200" height="700" fill="url(#bgGlow)"/>

  <g opacity="0.55" fill="#1A2C35">
	<circle cx="220" cy="220" r="58"/>
	<circle cx="1020" cy="520" r="70"/>
	<circle cx="980" cy="180" r="42"/>
  </g>

  <g opacity="0.35" stroke="#1E3A48" stroke-width="2">
	<path d="M190 220H340"/>
	<path d="M860 520H1090"/>
	<path d="M910 180H1055"/>
  </g>

  <rect x="300" y="120" width="600" height="440" rx="22" fill="#081017" stroke="url(#panelStroke)" stroke-width="2"/>

  <g opacity="0.8" fill="#5BEFFF" font-family="Inter, Segoe UI, sans-serif" font-size="78" font-weight="700">
	<text x="360" y="240">?</text>
	<text x="800" y="500" opacity="0.45">?</text>
  </g>

  <g stroke="url(#cyanLine)" stroke-width="4" stroke-linecap="round">
	<path d="M390 290H610"/>
	<path d="M390 330H560"/>
	<path d="M390 370H520"/>
  </g>

  <g>
	<circle cx="660" cy="340" r="92" fill="none" stroke="#73F2FF" stroke-width="12"/>
	<circle cx="660" cy="340" r="92" fill="none" stroke="#27E6FF" stroke-width="24" opacity="0.18" filter="url(#soft)"/>
	<path d="M724 404L790 470" stroke="#73F2FF" stroke-width="16" stroke-linecap="round"/>
  </g>

  <g opacity="0.95" stroke="#73F2FF" stroke-width="6" stroke-linecap="round" stroke-linejoin="round">
	<path d="M622 340L652 370L710 312"/>
  </g>

  <g opacity="0.85" stroke="#27E6FF" stroke-width="2">
	<path d="M505 458C560 430 620 422 678 430"/>
	<path d="M500 488C575 462 650 462 724 486"/>
  </g>

  <g opacity="0.5" filter="url(#soft)">
	<ellipse cx="600" cy="350" rx="310" ry="220" stroke="#27E6FF" stroke-width="5"/>
  </g>
</svg>
