<svg width="512" height="512" viewBox="0 0 512 512" fill="none" xmlns="http://www.w3.org/2000/svg">
  <defs>
	<linearGradient id="neon" x1="74" y1="110" x2="448" y2="406" gradientUnits="userSpaceOnUse">
	  <stop stop-color="#73F2FF"/>
	  <stop offset="1" stop-color="#14BDD4"/>
	</linearGradient>
	<linearGradient id="bodyFill" x1="72" y1="180" x2="440" y2="356" gradientUnits="userSpaceOnUse">
	  <stop stop-color="#10212B"/>
	  <stop offset="1" stop-color="#071018"/>
	</linearGradient>
	<filter id="glow" x="-30%" y="-30%" width="160%" height="160%" filterUnits="objectBoundingBox">
	  <feGaussianBlur stdDeviation="4"/>
	</filter>
  </defs>

	<g opacity="0.3" filter="url(#glow)">
	<rect x="62" y="184" width="388" height="156" rx="24" fill="#27E6FF"/>
  </g>

	<rect x="70" y="196" width="372" height="132" rx="18" fill="url(#bodyFill)" stroke="url(#neon)" stroke-width="6"/>

  <g opacity="0.9" stroke="url(#neon)" stroke-width="2">
	<path d="M220 198V328"/>
	<path d="M228 198V328"/>
	<path d="M236 198V328"/>
	<path d="M244 198V328"/>
	<path d="M252 198V328"/>
	<path d="M260 198V328"/>
	<path d="M268 198V328"/>
	<path d="M276 198V328"/>
	<path d="M284 198V328"/>
	<path d="M292 198V328"/>
  </g>

	<circle cx="148" cy="194" r="4" fill="#73F2FF"/>

	<g>
	<circle cx="148" cy="186" r="56" fill="#09151D" stroke="url(#neon)" stroke-width="6"/>
	<circle cx="148" cy="186" r="28" fill="#050A0F" stroke="url(#neon)" stroke-width="3"/>
	<circle cx="364" cy="186" r="56" fill="#09151D" stroke="url(#neon)" stroke-width="6"/>
	<circle cx="364" cy="186" r="28" fill="#050A0F" stroke="url(#neon)" stroke-width="3"/>
  </g>

	<g fill="#73F2FF">
	<circle cx="292" cy="292" r="4"/>
	<circle cx="304" cy="292" r="4"/>
	<circle cx="316" cy="292" r="4"/>
	<circle cx="328" cy="292" r="4"/>
  </g>

	<path d="M340 292H350" stroke="url(#neon)" stroke-width="3"/>
  <path d="M352 292H362" stroke="url(#neon)" stroke-width="3"/>
  <path d="M364 292H374" stroke="url(#neon)" stroke-width="3"/>

	<path d="M432 272H472" stroke="url(#neon)" stroke-width="6" stroke-linecap="round"/>
  <path d="M432 294H486" stroke="url(#neon)" stroke-width="6" stroke-linecap="round"/>

	<g stroke="url(#neon)" stroke-width="4" stroke-linecap="round">
	<path d="M442 206C464 206 482 224 482 246"/>
	<path d="M442 178C472 178 496 202 496 232"/>
  </g>
</svg>
